<?xml version="1.0" encoding="UTF-8"?>
<svg version="1.1" xmlns="http://www.w3.org/2000/svg" width="512" height="512">
<path d="M0 0 C5.16877946 5.47282531 8.24526998 11.0385186 8.25922108 18.62559032 C8.26367892 19.74828325 8.26813676 20.87097618 8.27272969 22.02769011 C8.27254533 23.26637998 8.27236097 24.50506985 8.27217102 25.78129578 C8.27584771 27.09311838 8.2795244 28.40494099 8.2833125 29.7565158 C8.29333738 33.40560114 8.29705008 37.05467002 8.29970181 40.70376718 C8.30360342 44.63642666 8.31318186 48.56907309 8.32191467 52.50172424 C8.34168318 62.00300158 8.3517458 71.50428 8.36064246 81.00557277 C8.36502474 85.47895914 8.37039171 89.95234432 8.37563133 94.42572975 C8.39264402 109.29470289 8.40713845 124.16367529 8.41438007 139.03265667 C8.41628999 142.89180693 8.41821032 146.75095718 8.42016602 150.61010742 C8.42064976 151.56929039 8.4211335 152.52847336 8.4216319 153.51672248 C8.42993313 169.05669368 8.45527144 184.59658794 8.48774669 200.13652553 C8.52081025 216.08791574 8.5388282 232.03926683 8.54202431 247.99069148 C8.54419007 256.94809891 8.55294825 265.90539412 8.57848549 274.86276817 C8.60018289 282.49094994 8.60824766 290.11899223 8.59851871 297.74720135 C8.59397119 301.6388594 8.59588622 305.53022964 8.61528015 309.4218483 C8.63613302 313.64269711 8.62593566 317.86290646 8.61274719 322.08378601 C8.62371644 323.31132227 8.63468568 324.53885853 8.64598733 325.80359286 C8.58255892 334.1987162 7.35944785 339.50484986 1.75 346 C-5.7605635 352.43762586 -11.93841658 354.64264919 -21.73828125 354.02734375 C-31.41066649 351.63032674 -37.35067729 346.30859862 -43.68017578 338.88574219 C-45.38719344 336.94720585 -47.09564606 335.0099324 -48.80532837 333.07374573 C-49.7098844 332.04074668 -50.61436964 331.00768563 -51.51878738 329.97456551 C-95.50862153 274.79293102 -95.50862153 274.79293102 -155.51965714 245.54043198 C-169.38425768 244.6583527 -183.46400116 246.7747995 -196.88085938 250.15893555 C-202.68327082 251.50219649 -205.64311847 251.05695437 -210.875 248.25 C-217.2470255 244.001983 -221.30702564 237.79419884 -222.875 230.25 C-222.96918304 228.69685285 -223.01395423 227.14029853 -223.02217102 225.58432007 C-223.02932632 224.65088776 -223.03648163 223.71745544 -223.04385376 222.7557373 C-223.04654266 221.73854614 -223.04923157 220.72135498 -223.05200195 219.67333984 C-223.05857315 218.59641876 -223.06514435 217.51949768 -223.07191467 216.40994263 C-223.091635 212.84360686 -223.10330842 209.27731322 -223.11328125 205.7109375 C-223.11735678 204.49144032 -223.1214323 203.27194313 -223.12563133 202.01549149 C-223.14648812 195.55899475 -223.16079075 189.10251923 -223.17016602 182.64599609 C-223.18021332 175.98817653 -223.21561145 169.3307386 -223.25533772 162.67302513 C-223.28152669 157.54447828 -223.28985999 152.41601094 -223.29344749 147.28740311 C-223.29830863 144.83390671 -223.30990903 142.38041376 -223.32848549 139.92698288 C-223.35292114 136.4853971 -223.35190314 133.04467393 -223.3449707 129.60302734 C-223.35778076 128.59798157 -223.37059082 127.59293579 -223.38378906 126.55743408 C-223.32563119 118.59777605 -221.33148806 112.19792725 -217.125 105.4375 C-213.16441 101.58692639 -208.42651819 98.13509594 -202.875 97.25 C-200.30657959 97.73777771 -200.30657959 97.73777771 -197.33496094 98.56811523 C-175.9059175 103.96889859 -151.18124266 106.72152006 -130.875 96.25 C-99.26061778 76.03203047 -73.24306457 43.39458136 -48.69197083 15.42622375 C-47.82398991 14.44349519 -46.95600899 13.46076662 -46.06172562 12.4482584 C-44.45825313 10.62697384 -42.86561884 8.79605797 -41.28680038 6.95336056 C-29.59234753 -6.3302529 -15.58674958 -9.4875867 0 0 Z " fill="#000000" transform="translate(247.875,81.75)"/>
<path d="M0 0 C39.35231672 24.45830446 64.52866634 84.39201942 74.75341797 127.00927734 C89.34134848 191.7558718 79.80037013 262.55924084 44.625 319.3671875 C43.78953863 320.68378073 42.94967349 321.99758963 42.10546875 323.30859375 C41.6779834 323.97262207 41.25049805 324.63665039 40.81005859 325.32080078 C31.92383682 338.96126644 21.7239815 351.51039219 10.79296875 363.55859375 C10.24278076 364.17871338 9.69259277 364.79883301 9.12573242 365.43774414 C4.242992 370.70287225 -1.92193226 374.80388736 -9.2421875 375.546875 C-17.9414894 375.78469764 -25.12940823 374.12330902 -31.76953125 368.24609375 C-36.43885036 363.10211572 -38.95433947 356.22386461 -39.39453125 349.30859375 C-38.58647047 338.78253888 -33.69636984 332.55256121 -26.59204102 325.27246094 C9.31272556 288.39455297 27.52388908 237.24284873 28.35546875 186.30859375 C27.49207994 136.38440535 10.27180211 88.47347282 -23.39453125 51.30859375 C-39.79860379 33.17329556 -39.79860379 33.17329556 -39.23828125 21.4765625 C-38.07993852 14.17110549 -35.53699852 7.70570308 -29.93359375 2.74609375 C-20.87619463 -3.63919912 -9.99110089 -5.11049231 0 0 Z " fill="#000000" transform="translate(405.89453125,69.69140625)"/>
<path d="M0 0 C26.81219242 23.00716182 42.64658498 59.51741723 47 94 C47.11201868 96.66231055 47.18691578 99.2987456 47.203125 101.9609375 C47.20882507 102.70977203 47.21452515 103.45860657 47.22039795 104.23013306 C47.22979745 105.81177381 47.2363617 107.39343371 47.24023438 108.97509766 C47.2498333 111.33403264 47.28085914 113.69205403 47.3125 116.05078125 C47.41127866 130.08718234 45.48867366 143.49781385 41.3125 156.9375 C41.05758789 157.76540039 40.80267578 158.59330078 40.54003906 159.44628906 C33.18353586 182.53533794 18.13365785 213.7978244 -3.8125 226.375 C-10.51401948 229.37645274 -17.76115535 229.71156904 -24.83203125 227.859375 C-32.01248944 225.01306725 -36.93592681 219.53841118 -40.75 213 C-43.17067396 206.82728141 -43.04960713 199.63121659 -41.2265625 193.32421875 C-38.47469217 187.20569854 -34.1862624 182.7984678 -29.62109375 177.96875 C-10.24273799 156.02009071 -4.65498441 128.54904051 -6 100 C-7.84534664 80.10988793 -17.01610192 60.95336577 -30 46 C-37.75792127 36.91539839 -42.74682252 30.64510061 -42.40625 18.28515625 C-41.39048304 10.07111764 -37.27860603 4.41326998 -30.9140625 -0.6640625 C-21.85876037 -6.98429378 -8.87104744 -6.34128106 0 0 Z " fill="#000000" transform="translate(337,144)"/>
</svg>
