<svg width="800px" height="800px" viewBox="0 0 32 32" id="woman_Light" data-name="woman/Light" xmlns="http://www.w3.org/2000/svg">
  
  <path id="Path-2" data-name="Path" d="M0,0H6V2H0Z" transform="translate(8 4)" fill="#1a1a1a" data-index="1" style="visibility: visible; opacity: 1; fill: rgb(234, 234, 247); stroke: rgb(234, 234, 247);"></path>
  <path id="Path-3" data-name="Path" d="M0,0H2V2H0Z" transform="translate(26 4)" fill="#1a1a1a" data-index="2" style="visibility: visible; opacity: 1; fill: rgb(234, 234, 247);"></path>
  <path id="Path-4" data-name="Path" d="M0,0H2V2H0Z" transform="translate(6 6)" fill="#1a1a1a" data-index="3" style="visibility: visible; opacity: 1; fill: rgb(234, 234, 247); stroke: rgb(234, 234, 247);"></path>
  
  <path id="Path-6" data-name="Path" d="M0,0H2V2H0Z" transform="translate(14 6)" fill="#1a1a1a" data-index="5" style="visibility: visible; opacity: 1; fill: rgb(234, 234, 247);"></path>
  <path id="Path-7" data-name="Path" d="M2,0H4V2H6V0H8V4H6V6H2V4H0V2H2Z" transform="translate(22 6)" fill="#1a1a1a" data-index="6" style="visibility: visible; opacity: 1; fill: rgb(234, 234, 247);"></path>
  
  <path id="Path-9" data-name="Path" d="M0,0H2V2H0Z" transform="translate(4 8)" fill="#1a1a1a" data-index="8" style="visibility: visible; opacity: 1; fill: rgb(234, 234, 247); stroke: rgb(234, 234, 247);"></path>
  
  <path id="Path-11" data-name="Path" d="M0,0H6V4H2V2H0Z" transform="translate(8 8)" fill="#1a1a1a" data-index="10" style="visibility: visible; opacity: 1; fill: rgb(234, 234, 247); stroke: rgb(234, 234, 247);"></path>
  <path id="Path-12" data-name="Path" d="M0,0H2V2H0Z" transform="translate(2 10)" fill="#1a1a1a" data-index="11" style="visibility: visible; opacity: 1; fill: rgb(234, 234, 247); stroke: rgb(234, 234, 247);"></path>
  <path id="Path-13" data-name="Path" d="M0,0H2V2H0Z" transform="translate(6 10)" fill="#1a1a1a" data-index="12" style="visibility: visible; opacity: 1; fill: rgb(234, 234, 247); stroke: rgb(234, 234, 247);"></path>
  <path id="Path-14" data-name="Path" d="M0,0H2V2H0Z" transform="translate(20 10)" fill="#1a1a1a" data-index="13" style="visibility: visible; opacity: 1; fill: rgb(234, 234, 247); stroke: rgb(234, 234, 247);"></path>
  
  <path id="Path-16" data-name="Path" d="M0,0H2V2H0Z" transform="translate(22 12)" fill="#1a1a1a" data-index="15" style="visibility: visible; opacity: 1; fill: rgb(234, 234, 247); stroke: rgb(234, 234, 247);"></path>
  <path id="Path-17" data-name="Path" d="M0,0H2V2H0Z" transform="translate(24 14)" fill="#1a1a1a" data-index="16" style="visibility: visible; opacity: 1; fill: rgb(234, 234, 247); stroke: rgb(234, 234, 247);"></path>
  <path id="Path-18" data-name="Path" d="M0,0H2V2H0Z" transform="translate(26 16)" fill="#1a1a1a" data-index="17" style="visibility: visible; opacity: 1; fill: rgb(234, 234, 247); stroke: rgb(234, 234, 247);"></path>
  <path id="Path-19" data-name="Path" d="M0,0H2V2H0Z" transform="translate(28 18)" fill="#1a1a1a" data-index="18" style="visibility: visible; opacity: 1; fill: rgb(234, 234, 247); stroke: rgb(234, 234, 247);"></path>
  <path id="Path-20" data-name="Path" d="M0,0H2V2H0Z" transform="translate(26 20)" fill="#1a1a1a" data-index="19" style="visibility: visible; opacity: 1; fill: rgb(234, 234, 247); stroke: rgb(234, 234, 247);"></path>
  <path id="Path-21" data-name="Path" d="M0,0H4V2H0Z" transform="translate(22 22)" fill="#1a1a1a" data-index="20" style="visibility: visible; opacity: 1; fill: rgb(234, 234, 247); stroke: rgb(234, 234, 247);"></path>
  <path id="Path-22" data-name="Path" d="M0,0H2V2H0Z" transform="translate(10 24)" fill="#1a1a1a" data-index="21" style="visibility: visible; opacity: 1; fill: rgb(234, 234, 247);"></path>
  <path id="Path-23" data-name="Path" d="M6,0H8V2h2V4H8V6H4V4H0V2H6Z" transform="translate(12 24)" fill="#1a1a1a" data-index="22" style="visibility: visible; opacity: 1; fill: rgb(234, 234, 247);"></path>
</svg>