<svg xmlns="http://www.w3.org/2000/svg" xmlns:xlink="http://www.w3.org/1999/xlink" fill="#faa209" width="800px" height="800px" viewBox="0 0 400 400" id="Home" version="1.1" xml:space="preserve">

<g id="XMLID_1_">

<rect height="26.7" id="XMLID_930_" width="26.7" x="186.7" fill="#faa209"/>

<rect height="26.7" id="XMLID_931_" width="26.7" x="160" y="26.7" fill="#faa209"/>

<rect height="26.7" id="XMLID_932_" width="26.7" x="213.3" y="26.7" fill="#faa209"/>

<rect height="26.7" id="XMLID_933_" width="26.7" x="133.3" y="53.3" fill="#faa209"/>

<rect height="26.7" id="XMLID_934_" width="26.7" x="240" y="53.3" fill="#faa209"/>

<rect height="26.7" id="XMLID_935_" width="26.7" x="106.7" y="80" fill="#faa209"/>

<rect height="26.7" id="XMLID_936_" width="26.7" x="266.7" y="80" fill="#faa209"/>

<rect height="26.7" id="XMLID_937_" width="26.7" x="80" y="106.7" fill="#faa209"/>

<rect height="26.7" id="XMLID_938_" width="26.7" x="293.3" y="106.7" fill="#faa209"/>

<rect height="26.7" id="XMLID_939_" width="26.7" x="53.3" y="133.3" fill="#faa209"/>

<rect height="26.7" id="XMLID_940_" width="26.7" x="320" y="133.3" fill="#faa209"/>

<rect height="26.7" id="XMLID_941_" width="26.7" x="26.7" y="160" fill="#faa209"/>

<rect height="26.7" id="XMLID_942_" width="26.7" x="346.7" y="160" fill="#faa209"/>

<polygon id="XMLID_943_" points="373.3,213.3 373.3,240 373.3,266.7 373.3,293.3 373.3,320 373.3,346.7 373.3,373.3 400,373.3    400,346.7 400,320 400,293.3 400,266.7 400,240 400,213.3 400,186.7 373.3,186.7  " fill="#faa209"/>

<polygon id="XMLID_944_" points="213.3,240 186.7,240 160,240 160,266.7 186.7,266.7 213.3,266.7 240,266.7 240,240  " fill="#faa209"/>

<polygon id="XMLID_945_" points="133.3,293.3 133.3,320 133.3,346.7 133.3,373.3 160,373.3 160,346.7 160,320 160,293.3 160,266.7    133.3,266.7  " fill="#faa209"/>

<polygon id="XMLID_946_" points="26.7,320 26.7,293.3 26.7,266.7 26.7,240 26.7,213.3 26.7,186.7 0,186.7 0,213.3 0,240 0,266.7    0,293.3 0,320 0,346.7 0,373.3 26.7,373.3 26.7,346.7  " fill="#faa209"/>

<polygon id="XMLID_947_" points="266.7,320 266.7,293.3 266.7,266.7 240,266.7 240,293.3 240,320 240,346.7 240,373.3 266.7,373.3    266.7,346.7  " fill="#faa209"/>

<polygon id="XMLID_948_" points="80,373.3 53.3,373.3 26.7,373.3 26.7,400 53.3,400 80,400 106.7,400 133.3,400 133.3,373.3    106.7,373.3  " fill="#faa209"/>

<polygon id="XMLID_949_" points="320,373.3 293.3,373.3 266.7,373.3 266.7,400 293.3,400 320,400 346.7,400 373.3,400 373.3,373.3    346.7,373.3  " fill="#faa209"/>

</g>

</svg>