<svg xmlns="http://www.w3.org/2000/svg" xmlns:xlink="http://www.w3.org/1999/xlink" fill="#eaeaf7" width="800px" height="800px" viewBox="0 0 400 400" id="Write" version="1.1" xml:space="preserve">

<g id="XMLID_1_">

<polygon id="XMLID_1033_" points="293.3,26.7 293.3,0 266.7,0 240,0 240,26.7 266.7,26.7  " fill="#eaeaf7"/>

<rect height="26.7" id="XMLID_1034_" width="26.7" x="213.3" y="26.7" fill="#eaeaf7"/>

<rect height="26.7" id="XMLID_1035_" width="26.7" x="293.3" y="26.7" fill="#eaeaf7"/>

<rect height="26.7" id="XMLID_1036_" width="26.7" x="186.7" y="53.3" fill="#eaeaf7"/>

<rect height="26.7" id="XMLID_1037_" width="26.7" x="320" y="53.3" fill="#eaeaf7"/>

<rect height="26.7" id="XMLID_1038_" width="26.7" x="160" y="80" fill="#eaeaf7"/>

<rect height="26.7" id="XMLID_1039_" width="26.7" x="213.3" y="80" fill="#eaeaf7"/>

<rect height="26.7" id="XMLID_1040_" width="26.7" x="133.3" y="106.7" fill="#eaeaf7"/>

<rect height="26.7" id="XMLID_1041_" width="26.7" x="240" y="106.7" fill="#eaeaf7"/>

<polygon id="XMLID_1042_" points="346.7,133.3 373.3,133.3 373.3,106.7 373.3,80 346.7,80 346.7,106.7  " fill="#eaeaf7"/>

<rect height="26.7" id="XMLID_1043_" width="26.7" x="106.7" y="133.3" fill="#eaeaf7"/>

<rect height="26.7" id="XMLID_1044_" width="26.7" x="266.7" y="133.3" fill="#eaeaf7"/>

<rect height="26.7" id="XMLID_1045_" width="26.7" x="320" y="133.3" fill="#eaeaf7"/>

<rect height="26.7" id="XMLID_1046_" width="26.7" x="80" y="160" fill="#eaeaf7"/>

<rect height="26.7" id="XMLID_1047_" width="26.7" x="293.3" y="160" fill="#eaeaf7"/>

<rect height="26.7" id="XMLID_1048_" width="26.7" x="53.3" y="186.7" fill="#eaeaf7"/>

<rect height="26.7" id="XMLID_1049_" width="26.7" x="266.7" y="186.7" fill="#eaeaf7"/>

<rect height="26.7" id="XMLID_1050_" width="26.7" x="26.7" y="213.3" fill="#eaeaf7"/>

<rect height="26.7" id="XMLID_1051_" width="26.7" x="240" y="213.3" fill="#eaeaf7"/>

<rect height="26.7" id="XMLID_1052_" width="26.7" x="213.3" y="240" fill="#eaeaf7"/>

<rect height="26.7" id="XMLID_1053_" width="26.7" x="186.7" y="266.7" fill="#eaeaf7"/>

<rect height="26.7" id="XMLID_1054_" width="26.7" x="160" y="293.3" fill="#eaeaf7"/>

<rect height="26.7" id="XMLID_1055_" width="26.7" x="133.3" y="320" fill="#eaeaf7"/>

<polygon id="XMLID_1056_" points="53.3,373.3 80,373.3 106.7,373.3 133.3,373.3 133.3,346.7 106.7,346.7 80,346.7 53.3,346.7    26.7,346.7 26.7,320 26.7,293.3 26.7,266.7 26.7,240 0,240 0,266.7 0,293.3 0,320 0,346.7 0,373.3 26.7,373.3  " fill="#eaeaf7"/>

<polygon id="XMLID_1057_" points="346.7,373.3 320,373.3 293.3,373.3 266.7,373.3 240,373.3 213.3,373.3 186.7,373.3 160,373.3    160,400 186.7,400 213.3,400 240,400 266.7,400 293.3,400 320,400 346.7,400 373.3,400 400,400 400,373.3 373.3,373.3  " fill="#eaeaf7"/>

</g>

</svg>