<?xml version="1.0" encoding="UTF-8"?>
<svg version="1.1" xmlns="http://www.w3.org/2000/svg" width="512" height="512">
<path d="M0 0 C5.16877946 5.47282531 8.24526998 11.0385186 8.25922108 18.62559032 C8.26367892 19.74828325 8.26813676 20.87097618 8.27272969 22.02769011 C8.27254533 23.26637998 8.27236097 24.50506985 8.27217102 25.78129578 C8.27584771 27.09311838 8.2795244 28.40494099 8.2833125 29.7565158 C8.29333738 33.40560114 8.29705008 37.05467002 8.29970181 40.70376718 C8.30360342 44.63642666 8.31318186 48.56907309 8.32191467 52.50172424 C8.34168318 62.00300158 8.3517458 71.50428 8.36064246 81.00557277 C8.36502474 85.47895914 8.37039171 89.95234432 8.37563133 94.42572975 C8.39264402 109.29470289 8.40713845 124.16367529 8.41438007 139.03265667 C8.41628999 142.89180693 8.41821032 146.75095718 8.42016602 150.61010742 C8.42064976 151.56929039 8.4211335 152.52847336 8.4216319 153.51672248 C8.42993313 169.05669368 8.45527144 184.59658794 8.48774669 200.13652553 C8.52081025 216.08791574 8.5388282 232.03926683 8.54202431 247.99069148 C8.54419007 256.94809891 8.55294825 265.90539412 8.57848549 274.86276817 C8.60018289 282.49094994 8.60824766 290.11899223 8.59851871 297.74720135 C8.59397119 301.6388594 8.59588622 305.53022964 8.61528015 309.4218483 C8.63613302 313.64269711 8.62593566 317.86290646 8.61274719 322.08378601 C8.62371644 323.31132227 8.63468568 324.53885853 8.64598733 325.80359286 C8.58255892 334.1987162 7.35944785 339.50484986 1.75 346 C-5.7605635 352.43762586 -11.93841658 354.64264919 -21.73828125 354.02734375 C-31.41066649 351.63032674 -37.35067729 346.30859862 -43.68017578 338.88574219 C-45.38719344 336.94720585 -47.09564606 335.0099324 -48.80532837 333.07374573 C-49.7098844 332.04074668 -50.61436964 331.00768563 -51.51878738 329.97456551 C-95.50862153 274.79293102 -95.50862153 274.79293102 -155.51965714 245.54043198 C-169.38425768 244.6583527 -183.46400116 246.7747995 -196.88085938 250.15893555 C-202.68327082 251.50219649 -205.64311847 251.05695437 -210.875 248.25 C-217.2470255 244.001983 -221.30702564 237.79419884 -222.875 230.25 C-222.96918304 228.69685285 -223.01395423 227.14029853 -223.02217102 225.58432007 C-223.02932632 224.65088776 -223.03648163 223.71745544 -223.04385376 222.7557373 C-223.04654266 221.73854614 -223.04923157 220.72135498 -223.05200195 219.67333984 C-223.05857315 218.59641876 -223.06514435 217.51949768 -223.07191467 216.40994263 C-223.091635 212.84360686 -223.10330842 209.27731322 -223.11328125 205.7109375 C-223.11735678 204.49144032 -223.1214323 203.27194313 -223.12563133 202.01549149 C-223.14648812 195.55899475 -223.16079075 189.10251923 -223.17016602 182.64599609 C-223.18021332 175.98817653 -223.21561145 169.3307386 -223.25533772 162.67302513 C-223.28152669 157.54447828 -223.28985999 152.41601094 -223.29344749 147.28740311 C-223.29830863 144.83390671 -223.30990903 142.38041376 -223.32848549 139.92698288 C-223.35292114 136.4853971 -223.35190314 133.04467393 -223.3449707 129.60302734 C-223.35778076 128.59798157 -223.37059082 127.59293579 -223.38378906 126.55743408 C-223.32563119 118.59777605 -221.33148806 112.19792725 -217.125 105.4375 C-213.16441 101.58692639 -208.42651819 98.13509594 -202.875 97.25 C-200.30657959 97.73777771 -200.30657959 97.73777771 -197.33496094 98.56811523 C-175.9059175 103.96889859 -151.18124266 106.72152006 -130.875 96.25 C-99.26061778 76.03203047 -73.24306457 43.39458136 -48.69197083 15.42622375 C-47.82398991 14.44349519 -46.95600899 13.46076662 -46.06172562 12.4482584 C-44.45825313 10.62697384 -42.86561884 8.79605797 -41.28680038 6.95336056 C-29.59234753 -6.3302529 -15.58674958 -9.4875867 0 0 Z " fill="#000000" transform="translate(247.875,81.75)"/>
<path d="M0 0 C8.70517314 7.38831967 16.71511272 15.58725835 24.75 23.6875 C25.85132285 24.7938584 26.95288445 25.8999792 28.0546875 27.00585938 C30.70586585 29.66785647 33.35385845 32.33299489 36 35 C38.86283259 33.70332429 40.89200775 32.3465031 43.08105469 30.09838867 C43.65555359 29.51405563 44.23005249 28.9297226 44.82196045 28.3276825 C45.73766815 27.38237419 45.73766815 27.38237419 46.671875 26.41796875 C47.98945654 25.07995325 49.30716907 23.74206674 50.625 22.40429688 C52.6856095 20.30034994 54.74367377 18.19399283 56.79882812 16.0847168 C58.79154137 14.04333647 60.79368918 12.01156607 62.796875 9.98046875 C63.70043732 9.04426949 63.70043732 9.04426949 64.62225342 8.0891571 C71.65095488 0.98046073 78.0109497 -3.05817433 88.125 -3.375 C95.64920775 -3.2989979 101.20190384 -1.38770865 106.84375 3.64453125 C113.15329447 10.49533567 114.5645321 16.69925224 114.26171875 25.8671875 C113.02509645 40.66974103 97.35454538 51.78897584 87.3125 61.75 C86.2061416 62.85132285 85.1000208 63.95288445 83.99414062 65.0546875 C81.33214353 67.70586585 78.66700511 70.35385845 76 73 C77.29667571 75.86283259 78.6534969 77.89200775 80.90161133 80.08105469 C81.48594437 80.65555359 82.0702774 81.23005249 82.6723175 81.82196045 C83.30252304 82.43243225 83.93272858 83.04290405 84.58203125 83.671875 C85.92004675 84.98945654 87.25793326 86.30716907 88.59570312 87.625 C90.69965006 89.6856095 92.80600717 91.74367377 94.9152832 93.79882812 C96.95666353 95.79154137 98.98843393 97.79368918 101.01953125 99.796875 C101.95573051 100.70043732 101.95573051 100.70043732 102.9108429 101.62225342 C110.01953927 108.65095488 114.05817433 115.0109497 114.375 125.125 C114.2989979 132.64920775 112.38770865 138.20190384 107.35546875 143.84375 C100.50466433 150.15329447 94.30074776 151.5645321 85.1328125 151.26171875 C70.33025897 150.02509645 59.21102416 134.35454538 49.25 124.3125 C48.14867715 123.2061416 47.04711555 122.1000208 45.9453125 120.99414062 C43.29413415 118.33214353 40.64614155 115.66700511 38 113 C35.13716741 114.29667571 33.10799225 115.6534969 30.91894531 117.90161133 C30.34444641 118.48594437 29.76994751 119.0702774 29.17803955 119.6723175 C28.56756775 120.30252304 27.95709595 120.93272858 27.328125 121.58203125 C26.01054346 122.92004675 24.69283093 124.25793326 23.375 125.59570312 C21.3143905 127.69965006 19.25632623 129.80600717 17.20117188 131.9152832 C15.20845863 133.95666353 13.20631082 135.98843393 11.203125 138.01953125 C10.60075012 138.64366409 9.99837524 139.26779694 9.37774658 139.9108429 C2.34904512 147.01953927 -4.0109497 151.05817433 -14.125 151.375 C-21.64920775 151.2989979 -27.20190384 149.38770865 -32.84375 144.35546875 C-39.15329447 137.50466433 -40.5645321 131.30074776 -40.26171875 122.1328125 C-39.02509645 107.33025897 -23.35454538 96.21102416 -13.3125 86.25 C-12.2061416 85.14867715 -11.1000208 84.04711555 -9.99414062 82.9453125 C-7.33214353 80.29413415 -4.66700511 77.64614155 -2 75 C-3.29667571 72.13716741 -4.6534969 70.10799225 -6.90161133 67.91894531 C-7.48594437 67.34444641 -8.0702774 66.76994751 -8.6723175 66.17803955 C-9.61762581 65.26233185 -9.61762581 65.26233185 -10.58203125 64.328125 C-11.92004675 63.01054346 -13.25793326 61.69283093 -14.59570312 60.375 C-16.69965006 58.3143905 -18.80600717 56.25632623 -20.9152832 54.20117188 C-22.95666353 52.20845863 -24.98843393 50.20631082 -27.01953125 48.203125 C-27.64366409 47.60075012 -28.26779694 46.99837524 -28.9108429 46.37774658 C-36.01953927 39.34904512 -40.05817433 32.9890503 -40.375 22.875 C-40.2989979 15.35079225 -38.38770865 9.79809616 -33.35546875 4.15625 C-24.51200175 -3.98852322 -10.59831491 -6.59311718 0 0 Z " fill="#000000" transform="translate(347,182)"/>
</svg>
